<mxfile host="app.diagrams.net" modified="2024-04-15T13:53:41.109Z" agent="Mozilla/5.0 (Macintosh; Intel Mac OS X 10_15_7) AppleWebKit/605.1.15 (KHTML, like Gecko) Version/16.6 Safari/605.1.15" etag="eB1TQJgOS9NqvuZmGO1z" version="24.2.5" type="device">
  <diagram name="Sayfa -1" id="DO9_rQwlhb1ZPyHKhb2B">
    <mxGraphModel dx="1704" dy="1013" grid="1" gridSize="10" guides="1" tooltips="1" connect="1" arrows="1" fold="1" page="1" pageScale="1" pageWidth="827" pageHeight="1169" math="0" shadow="0">
      <root>
        <mxCell id="0" />
        <mxCell id="1" parent="0" />
        <mxCell id="QRytesSa2mU80QSr3Wdu-9" style="edgeStyle=orthogonalEdgeStyle;rounded=0;orthogonalLoop=1;jettySize=auto;html=1;" edge="1" parent="1" source="QRytesSa2mU80QSr3Wdu-1" target="QRytesSa2mU80QSr3Wdu-2">
          <mxGeometry relative="1" as="geometry" />
        </mxCell>
        <mxCell id="QRytesSa2mU80QSr3Wdu-18" style="edgeStyle=orthogonalEdgeStyle;rounded=0;orthogonalLoop=1;jettySize=auto;html=1;" edge="1" parent="1" source="QRytesSa2mU80QSr3Wdu-1" target="QRytesSa2mU80QSr3Wdu-6">
          <mxGeometry relative="1" as="geometry">
            <Array as="points">
              <mxPoint x="480" y="120" />
              <mxPoint x="480" y="760" />
            </Array>
          </mxGeometry>
        </mxCell>
        <mxCell id="QRytesSa2mU80QSr3Wdu-1" value="Start" style="ellipse;whiteSpace=wrap;html=1;" vertex="1" parent="1">
          <mxGeometry x="110" y="80" width="120" height="80" as="geometry" />
        </mxCell>
        <mxCell id="QRytesSa2mU80QSr3Wdu-10" style="edgeStyle=orthogonalEdgeStyle;rounded=0;orthogonalLoop=1;jettySize=auto;html=1;" edge="1" parent="1" source="QRytesSa2mU80QSr3Wdu-2" target="QRytesSa2mU80QSr3Wdu-3">
          <mxGeometry relative="1" as="geometry" />
        </mxCell>
        <mxCell id="QRytesSa2mU80QSr3Wdu-2" value="Terraform Setup" style="rounded=0;whiteSpace=wrap;html=1;" vertex="1" parent="1">
          <mxGeometry x="110" y="240" width="120" height="60" as="geometry" />
        </mxCell>
        <mxCell id="QRytesSa2mU80QSr3Wdu-12" style="edgeStyle=orthogonalEdgeStyle;rounded=0;orthogonalLoop=1;jettySize=auto;html=1;" edge="1" parent="1" source="QRytesSa2mU80QSr3Wdu-3" target="QRytesSa2mU80QSr3Wdu-4">
          <mxGeometry relative="1" as="geometry" />
        </mxCell>
        <mxCell id="QRytesSa2mU80QSr3Wdu-3" value="Setup Google Kubernetes Engine" style="rounded=0;whiteSpace=wrap;html=1;" vertex="1" parent="1">
          <mxGeometry x="110" y="380" width="120" height="60" as="geometry" />
        </mxCell>
        <mxCell id="QRytesSa2mU80QSr3Wdu-13" style="edgeStyle=orthogonalEdgeStyle;rounded=0;orthogonalLoop=1;jettySize=auto;html=1;" edge="1" parent="1" source="QRytesSa2mU80QSr3Wdu-4" target="QRytesSa2mU80QSr3Wdu-5">
          <mxGeometry relative="1" as="geometry" />
        </mxCell>
        <mxCell id="QRytesSa2mU80QSr3Wdu-4" value="Configure Docker" style="rounded=0;whiteSpace=wrap;html=1;" vertex="1" parent="1">
          <mxGeometry x="110" y="500" width="120" height="60" as="geometry" />
        </mxCell>
        <mxCell id="QRytesSa2mU80QSr3Wdu-14" style="edgeStyle=orthogonalEdgeStyle;rounded=0;orthogonalLoop=1;jettySize=auto;html=1;" edge="1" parent="1" source="QRytesSa2mU80QSr3Wdu-5" target="QRytesSa2mU80QSr3Wdu-6">
          <mxGeometry relative="1" as="geometry" />
        </mxCell>
        <mxCell id="QRytesSa2mU80QSr3Wdu-5" value="Setup CI/CD Pipelines" style="rounded=0;whiteSpace=wrap;html=1;" vertex="1" parent="1">
          <mxGeometry x="110" y="620" width="120" height="60" as="geometry" />
        </mxCell>
        <mxCell id="QRytesSa2mU80QSr3Wdu-15" style="edgeStyle=orthogonalEdgeStyle;rounded=0;orthogonalLoop=1;jettySize=auto;html=1;" edge="1" parent="1" source="QRytesSa2mU80QSr3Wdu-6" target="QRytesSa2mU80QSr3Wdu-7">
          <mxGeometry relative="1" as="geometry" />
        </mxCell>
        <mxCell id="QRytesSa2mU80QSr3Wdu-6" value="Configure Monitoring and Alerting" style="rounded=0;whiteSpace=wrap;html=1;" vertex="1" parent="1">
          <mxGeometry x="110" y="730" width="120" height="60" as="geometry" />
        </mxCell>
        <mxCell id="QRytesSa2mU80QSr3Wdu-16" style="edgeStyle=orthogonalEdgeStyle;rounded=0;orthogonalLoop=1;jettySize=auto;html=1;" edge="1" parent="1" source="QRytesSa2mU80QSr3Wdu-7" target="QRytesSa2mU80QSr3Wdu-8">
          <mxGeometry relative="1" as="geometry" />
        </mxCell>
        <mxCell id="QRytesSa2mU80QSr3Wdu-7" value="Deploy&amp;amp;Monitor" style="rounded=0;whiteSpace=wrap;html=1;" vertex="1" parent="1">
          <mxGeometry x="110" y="860" width="120" height="60" as="geometry" />
        </mxCell>
        <mxCell id="QRytesSa2mU80QSr3Wdu-8" value="End" style="ellipse;whiteSpace=wrap;html=1;" vertex="1" parent="1">
          <mxGeometry x="110" y="970" width="120" height="80" as="geometry" />
        </mxCell>
      </root>
    </mxGraphModel>
  </diagram>
</mxfile>
